<svg width="249" height="162" viewBox="0 0 249 162" fill="none" xmlns="http://www.w3.org/2000/svg">
<path d="M143.688 147.103C166.92 136.236 188.279 111.13 177.037 70.6604C161.674 82.2766 143.313 93.1435 122.703 102.511C102.469 111.879 82.2339 118.999 63.498 123.496C88.6041 154.597 120.455 157.97 143.688 147.103Z" fill="#736CED"/>
<path opacity="0.1" d="M104.384 145.12C108.555 136.484 107.293 127.633 114.704 120.304C122.756 112.308 135.646 111.945 145.982 108.498C162.739 102.939 179.786 88.3984 180.935 69.7361C180.985 68.2004 180.551 66.6818 179.694 65.3947C178.837 64.1076 177.6 63.117 176.157 62.5628C174.715 62.0085 173.141 61.9187 171.656 62.3058C170.172 62.6929 168.852 63.5375 167.884 64.7204C161.348 73.8675 156.495 83.397 147.094 90.1312C136.975 97.3619 124.231 97.858 113.052 102.742C98.4185 109.15 82.0629 131.23 93.9875 146.768C97.0214 150.75 102.507 148.971 104.384 145.12Z" fill="#FCFAFA"/>
<path opacity="0.1" d="M134.124 147.427C135.69 143.865 141.827 139.541 145.142 137.605C149.856 135.004 155.026 133.354 160.359 132.749C171.322 131.356 170.242 115.663 160.022 114.113C155.363 113.416 150.599 113.72 146.048 115.004C141.496 116.289 137.26 118.524 133.621 121.562C130.369 124.242 127.618 127.478 125.495 131.118C123.035 135.236 122.902 138.539 121.772 142.793C121.276 144.398 121.404 146.126 122.131 147.629C122.857 149.132 124.129 150.298 125.689 150.892C127.249 151.486 128.981 151.465 130.537 150.832C132.094 150.199 133.358 149.002 134.075 147.481L134.124 147.427Z" fill="#FCFAFA"/>
<path d="M159.425 50.4262C159.8 51.1756 160.549 51.5503 160.924 52.2998C179.66 47.8031 193.15 47.4284 195.773 53.4239C198.771 59.4194 188.653 70.6609 171.042 83.0266C159.051 91.2704 143.312 100.264 125.701 108.507C108.089 116.751 91.2267 123.121 76.9875 126.869C56.378 132.489 41.3893 132.864 38.7663 126.869C36.1433 121.248 44.7618 110.756 60.4999 99.5142C60.1252 98.7648 60.1252 98.0153 59.7505 97.2659C35.3938 113.379 21.5293 128.367 24.9018 136.237C29.0237 144.855 52.2561 142.607 83.7324 132.489C97.597 127.993 112.586 121.997 128.324 114.878C144.062 107.383 158.301 99.8889 170.667 92.0198C198.396 74.4081 215.258 57.9205 211.136 49.302C208.139 41.0582 187.529 42.1824 159.425 50.4262Z" fill="#938DFF"/>
<path d="M161.3 46.3039C162.049 47.0533 162.424 48.1775 163.173 48.9269C188.279 42.5567 223.503 33.9382 227.25 41.4325C230.997 49.6763 217.882 64.2903 194.649 80.7779C178.537 92.0194 157.927 104.01 134.32 114.877C111.087 125.744 88.6044 133.988 69.4938 139.234C42.1394 146.728 22.2794 147.103 18.5322 139.234C15.1597 131.739 36.1439 113.753 57.1281 98.3896C56.7534 97.2655 56.7534 96.1413 56.3787 95.3919C24.153 116.751 -4.32554 140.733 0.545789 151.225C5.79184 162.466 37.2681 159.843 78.8617 146.354C97.2229 140.358 117.458 132.489 138.067 122.746C159.051 113.004 178.162 102.512 194.275 92.3941C231.372 69.1616 253.48 46.6786 248.234 35.4371C243.363 24.5702 198.397 35.0623 161.3 46.3039Z" fill="#4C45D3"/>
<path d="M162.048 53.7981C162.423 54.5476 163.172 55.297 163.547 56.0464C169.917 55.6717 174.414 56.4212 175.913 59.4189C177.037 62.0419 174.789 66.5385 169.917 71.4099C161.299 80.4031 144.062 91.2699 123.078 101.387C102.094 111.13 82.6082 117.125 70.2425 118.25C63.1229 118.999 58.6263 117.875 57.1274 115.252C56.0032 112.629 57.8769 108.507 62.3735 103.636C61.9987 102.886 61.624 101.762 61.624 101.013C50.3825 110.006 44.7617 117.5 47.01 121.997C49.2583 126.868 59.7504 127.243 75.1138 123.87C88.9784 120.873 106.965 114.502 125.326 105.884C144.062 97.2654 160.175 87.5227 171.416 78.9042C183.782 69.5363 190.152 60.9178 187.904 56.4212C185.656 51.5498 175.913 51.1751 162.048 53.7981Z" fill="#4C45D3"/>
<path d="M174.041 60.9179C173.292 59.0443 172.168 57.1707 171.044 55.2971C170.669 54.5477 169.919 53.4235 169.545 52.6741C169.17 51.9247 168.795 51.5499 168.42 50.8005C168.046 50.0511 167.296 49.3016 166.922 48.5522C149.31 25.6944 117.459 17.0759 90.1045 29.8163C90.1045 29.8163 90.1045 29.8163 89.7298 29.8163C62.3754 42.5567 48.5109 72.5342 54.8811 100.638C55.2558 101.387 55.2558 102.512 55.6305 103.261C55.6305 104.01 56.0052 104.76 56.0052 105.135C56.3799 106.259 56.7546 107.008 57.1294 108.132C57.8788 110.006 58.6282 111.88 59.3777 114.128C60.5018 116.376 61.626 118.624 63.1249 120.873C76.6147 119.374 96.1 113.378 117.459 104.01C119.332 103.261 121.206 102.137 123.454 101.387C130.949 98.015 137.694 94.2678 144.064 90.8953C156.804 83.7757 167.671 76.2813 175.165 69.9111C175.915 69.1617 176.664 68.787 177.414 68.0375C176.29 65.7892 175.165 63.1662 174.041 60.9179Z" fill="#736CED"/>
<mask id="mask0" mask-type="alpha" maskUnits="userSpaceOnUse" x="35" y="0" width="150" height="156">
<path opacity="0.1" d="M84.4145 139.625C77.8666 128.216 82.9653 109.911 91.7606 100.908C101.914 90.4877 118.128 91.3605 130.422 84.6932C141.919 78.1771 150.511 67.548 154.475 54.9379C158.795 41.8569 163.034 21.0642 153.243 9.74856C151.991 8.28816 150.426 7.12778 148.665 6.3538C146.905 5.57981 144.994 5.21215 143.075 5.27819C141.155 5.34423 139.277 5.84225 137.579 6.7352C135.882 7.62816 134.409 8.89306 133.271 10.4357C123.388 22.9063 132.56 41.3292 122.978 54.6971C114.88 66.0396 95.8482 65.1897 84.2783 71.8934C72.2514 78.753 63.3688 90.0154 59.4974 103.314C54.8617 120.172 60.4937 132.189 68.7304 146.547C74.1894 156.046 89.8735 149.124 84.3589 139.542L84.4145 139.625Z" fill="#FCFAFA"/>
<path opacity="0.1" d="M112.91 17.3768C116.629 28.9543 105.66 40.0224 96.4881 44.3419C88.5902 48.0534 79.9449 48.922 71.6733 51.212C60.3252 54.4003 50.2031 60.409 47.8976 72.4922C47.8359 73.2534 47.9978 74.0159 48.3635 74.6859C48.7291 75.356 49.2826 75.9046 49.9559 76.2641C50.6292 76.6237 51.3931 76.7787 52.1537 76.71C52.9142 76.6414 53.6385 76.352 54.2374 75.8776C61.1245 69.7658 69.0392 64.9222 77.6141 61.5716C87.5012 57.9037 98.5035 56.1365 107.487 50.3353C120.043 42.1222 124.766 28.2124 114.211 16.5962C114.113 16.4372 113.955 16.3239 113.773 16.281C113.591 16.2382 113.4 16.2693 113.241 16.3677C113.082 16.466 112.968 16.6235 112.925 16.8054C112.882 16.9873 112.913 17.1788 113.011 17.3378L112.91 17.3768Z" fill="#FCFAFA"/>
</mask>
<g mask="url(#mask0)">
<circle cx="117.5" cy="86.5" r="62.5" fill="#C4C4C4"/>
</g>
</svg>
