<svg width="127" height="127" viewBox="0 0 127 127" fill="none" xmlns="http://www.w3.org/2000/svg">
<path d="M73.7297 88.3034C86.3791 82.4895 91.9359 67.5556 86.141 54.9477C80.3462 42.3398 65.3941 36.8323 52.7447 42.6462C40.0952 48.4602 34.5385 63.394 40.3334 76.0019C46.1282 88.6098 61.0803 94.1174 73.7297 88.3034Z" fill="#F6C813"/>
<path d="M71.0108 41.4549C74.3173 43.908 77.099 47.185 78.9282 51.1647C84.7171 63.7598 79.1534 78.7123 66.5169 84.5204C60.5057 87.2832 54.0197 87.5098 48.2105 85.6243C55.3517 90.8705 65.0457 92.1888 73.6895 88.2159C86.3261 82.4079 91.8898 67.4553 86.1008 54.8603C83.1095 48.2364 77.5037 43.5559 71.0108 41.4549Z" fill="#F8E000"/>
<path d="M87.24 92.953L68.4606 101.584C66.7494 102.371 64.7021 101.617 63.9182 99.9112C63.1342 98.2056 63.8951 96.1608 65.6063 95.3743L84.3857 86.7429C86.0969 85.9564 88.1442 86.7105 88.9281 88.4161C89.7321 90.1654 88.9512 92.1665 87.24 92.953Z" fill="#F6C813"/>
<path d="M47.4981 23.0215L52.081 32.9926C52.8649 34.6982 52.1041 36.743 50.3929 37.5295C48.6816 38.316 46.6344 37.5619 45.8504 35.8563L41.2675 25.8852C40.5275 24.1594 41.2444 22.1348 42.9556 21.3483C44.6668 20.5618 46.7141 21.3159 47.4981 23.0215Z" fill="#F6C813"/>
<path d="M85.5542 25.3414L81.7261 35.6293C81.0604 37.4185 79.1298 38.3058 77.3384 37.646C75.5471 36.9861 74.6626 35.0619 75.3284 33.2727L79.1564 22.9848C79.8221 21.1956 81.7527 20.3083 83.5441 20.9682C85.2715 21.6044 86.176 23.5724 85.5542 25.3414Z" fill="#F6C813"/>
<path d="M19.4313 55.7329L29.7318 59.5271C31.5231 60.1869 33.4537 59.2996 34.1195 57.5104C34.7852 55.7212 33.9008 53.7969 32.1094 53.1371L21.809 49.3429C20.0176 48.6831 18.087 49.5704 17.4213 51.3596C16.7354 53.1051 17.64 55.0731 19.4313 55.7329Z" fill="#F6C813"/>
<path d="M105.865 49.6432L95.8609 54.2412C94.1497 55.0277 92.1024 54.2736 91.3185 52.568C90.5346 50.8625 91.2954 48.8177 93.0066 48.0312L103.011 43.4331C104.722 42.6466 106.769 43.4007 107.553 45.1063C108.293 46.8321 107.576 48.8567 105.865 49.6432Z" fill="#F6C813"/>
<path d="M34.8279 82.2933L24.8239 86.8914C23.1127 87.6779 21.0654 86.9238 20.2815 85.2182C19.4976 83.5126 20.2584 81.4678 21.9696 80.6813L31.9736 76.0833C33.6848 75.2968 35.7321 76.0509 36.516 77.7565C37.256 79.4822 36.5391 81.5068 34.8279 82.2933Z" fill="#F6C813"/>
<path d="M85.2396 105.367L79.2285 108.13C77.5173 108.917 75.47 108.162 74.6861 106.457C73.9021 104.751 74.663 102.706 76.3742 101.92L82.3853 99.1571C84.0966 98.3706 86.1438 99.1247 86.9278 100.83C87.7117 102.536 86.9508 104.581 85.2396 105.367Z" fill="#F6C813"/>
</svg>
