<svg width="70" height="70" viewBox="0 0 70 70" fill="none" xmlns="http://www.w3.org/2000/svg">
<path d="M32.5468 67.547C14.5716 66.1922 1.09818 50.5221 2.453 32.5469C3.80783 14.5718 19.4779 1.0983 37.4531 2.45312C55.4283 3.80795 68.9017 19.478 67.5469 37.4532C66.192 55.4284 50.522 68.9019 32.5468 67.547Z" fill="#F9C80E"/>
<path opacity="0.35" d="M25.9883 9.16298C30.1054 7.44315 34.4391 8.08811 35.7392 10.6679C37.0394 13.2476 34.6558 16.9022 30.3221 18.837C26.205 20.5569 21.8713 19.9119 20.5712 17.3322C19.271 14.7524 21.8713 11.0978 25.9883 9.16298Z" fill="#F5E611"/>
<path opacity="0.35" d="M59.3641 27.5865C62.3177 30.7651 62.5287 35.6388 59.5751 38.1816C56.6216 40.9364 51.9803 40.3007 49.0267 37.1221C46.0731 33.9436 45.8622 29.0698 48.8157 26.527C51.5583 23.7723 56.4106 24.1961 59.3641 27.5865Z" fill="#F5E611"/>
<path opacity="0.35" d="M30.6879 40.0312C33.4577 40.0312 35.7659 41.8785 35.7659 44.1875C35.7659 46.4966 33.4577 48.3438 30.6879 48.3438C27.9181 48.3438 25.6099 46.4966 25.6099 44.1875C25.3791 41.8785 27.6872 40.0312 30.6879 40.0312Z" fill="#F5E611"/>
<path d="M26.3616 9.91718C29.7877 8.4746 33.3941 9.01559 34.4761 11.1795C35.558 13.3433 33.5745 16.4088 29.968 18.0317C26.5419 19.4743 22.9355 18.9333 21.8536 16.7694C20.7716 14.6055 22.9355 11.5401 26.3616 9.91718Z" fill="#FDD22D"/>
<path opacity="0.35" d="M13.7376 30.8346C15.3605 31.3756 15.7212 33.9001 14.8195 36.2443C13.9179 38.5884 11.9344 40.031 10.3115 39.49C8.68858 38.9491 8.32796 36.4246 9.22957 34.0804C10.1312 31.7362 12.1147 30.2937 13.7376 30.8346Z" fill="#EADA02"/>
<path d="M13.1966 31.7363C14.4589 32.2772 14.8195 34.2608 14.0982 36.064C13.3769 38.0476 11.754 39.1295 10.4918 38.5885C9.22948 38.0475 8.86884 36.064 9.59013 34.2608C10.3114 32.4576 11.9343 31.1953 13.1966 31.7363Z" fill="#FDD22D"/>
<path d="M58.6391 28.3099C61.1636 31.0147 61.3439 35.1621 58.8194 37.326C56.2949 39.6702 52.3278 39.1292 49.8033 36.4244C47.2788 33.7196 47.0985 29.5722 49.623 27.4083C51.9672 25.0641 56.1146 25.4247 58.6391 28.3099Z" fill="#FDD22D"/>
<path opacity="0.35" d="M45.4752 52.2929C47.0981 51.211 49.0817 51.211 49.6227 52.2929C50.3439 53.3748 49.4423 54.9977 47.8194 56.0797C46.1965 57.1616 44.213 57.1616 43.672 56.0797C43.1311 54.9977 43.8524 53.3748 45.4752 52.2929Z" fill="#FFDD5E"/>
<path d="M30.6887 40.9326C32.8526 40.9326 34.6558 42.3752 34.6558 44.1784C34.6558 45.9816 32.8526 47.4242 30.6887 47.4242C28.5248 47.4242 26.7216 45.9816 26.7216 44.1784C26.5413 42.3752 28.3445 40.9326 30.6887 40.9326Z" fill="#FDD22D"/>
<path opacity="0.35" d="M53.2292 12.9827C54.6718 14.4253 54.8522 16.2285 53.9506 17.3105C53.0489 18.3924 51.0654 17.8514 49.8031 16.5892C48.3606 15.1466 48.1802 13.3433 49.0818 12.2614C49.9834 11.3598 51.967 11.7205 53.2292 12.9827Z" fill="#FFDD5E"/>
<path opacity="0.35" d="M25.8202 58.2437C27.0825 58.7846 27.6235 60.0469 27.2628 60.9485C26.9022 61.8502 25.4596 62.0305 24.3776 61.4895C23.1154 60.9486 22.5744 59.6863 22.9351 58.7847C23.2957 57.8831 24.558 57.7027 25.8202 58.2437Z" fill="#FFDD5E"/>
<path opacity="0.35" d="M35.7375 25.0642C36.9998 24.5233 38.262 24.7036 38.6227 25.6052C38.9833 26.5068 38.262 27.5888 37.1801 28.1297C35.9179 28.6707 34.6556 28.4903 34.295 27.5887C33.9343 26.8674 34.6556 25.6052 35.7375 25.0642Z" fill="#FFDD5E"/>
</svg>
