<svg width="81" height="67" viewBox="0 0 81 67" fill="none" xmlns="http://www.w3.org/2000/svg">
<path d="M7.07607 35.696C7.07607 35.696 13.9002 48.1069 31.5874 54.4573C49.2746 60.8077 64.3673 56.0688 64.3673 56.0688L7.07607 35.696Z" fill="#F9C80E"/>
<path d="M33.8617 50.5345C51.7305 56.9501 67.6373 58.1923 69.3906 53.309C71.1439 48.4256 58.0798 39.266 40.211 32.8504C22.3422 26.4348 6.43529 25.1927 4.68198 30.076C2.92868 34.9593 15.9929 44.1189 33.8617 50.5345Z" fill="#736CED"/>
<path d="M68.3309 50.7049C68.2045 50.2372 68.0089 49.791 67.7506 49.3812C63.5812 40.4145 55.6882 34.9594 55.6882 34.9594L26.703 24.5525C14.7931 23.925 8.042 27.8132 7.09519 28.4022L7.06443 28.4193L6.97299 28.4779C6.4802 28.7661 6.0985 29.2114 5.88917 29.7425C4.34941 34.031 17.0727 42.5258 34.3111 48.7151C51.5495 54.9043 66.7673 56.4415 68.3071 52.153C68.4613 51.6838 68.4697 51.1789 68.3309 50.7049Z" fill="#56CBF9"/>
<path d="M36.7087 42.3208C38.2269 42.8659 39.7708 42.4357 40.157 41.3599C40.5433 40.2841 39.6257 38.9701 38.1075 38.425C36.5893 37.8799 35.0455 38.3101 34.6592 39.3859C34.2729 40.4617 35.1906 41.7757 36.7087 42.3208Z" fill="#FCFAFA"/>
<path d="M25.8219 34.3658C25.7735 35.2843 24.4717 35.9604 22.9182 35.8776C21.3646 35.7948 20.1441 34.9801 20.1956 34.0627C20.247 33.1453 21.5446 32.4712 23.0982 32.554C24.6517 32.6368 25.8733 33.4483 25.8219 34.3658Z" fill="#FCFAFA"/>
<path d="M17.5135 28.2056C17.6203 28.7999 16.6433 29.4729 15.3295 29.712C14.0158 29.951 12.8671 29.6617 12.7478 29.063C12.6285 28.4642 13.6149 27.7945 14.9286 27.5555C16.2424 27.3164 17.4067 27.6113 17.5135 28.2056Z" fill="#FCFAFA"/>
<path d="M60.4083 43.6065C59.9479 43.9971 60.2737 45.138 61.1353 46.1581C61.997 47.1782 63.0705 47.6867 63.5403 47.2995C64.0101 46.9122 63.6749 45.7681 62.8133 44.7479C61.9516 43.7278 60.8687 43.2159 60.4083 43.6065Z" fill="#FCFAFA"/>
<path d="M50.1353 43.0952C49.5883 43.8348 50.1627 45.1845 51.4142 46.1088C52.6656 47.0331 54.1255 47.1808 54.6725 46.4413C55.2195 45.7018 54.644 44.3551 53.3894 43.4297C52.1348 42.5043 50.6792 42.3546 50.1353 43.0952Z" fill="#FCFAFA"/>
<path d="M13.0834 25.943C13.62 25.3694 14.3361 24.996 15.1136 24.8845C16.4625 24.6651 17.1694 25.0386 17.1694 25.0386L13.0834 25.943Z" fill="#FCFAFA"/>
<path d="M65.2149 44.91C65.1639 44.127 64.8468 43.385 64.3162 42.807C63.4118 41.7786 62.6309 41.6213 62.6309 41.6213L65.2149 44.91Z" fill="#FCFAFA"/>
<path d="M40.2919 32.6263C48.2925 35.4988 55.2332 36.5604 55.7944 34.9975C56.3555 33.4345 50.3247 29.8389 42.3241 26.9663C34.3235 24.0938 27.3828 23.0322 26.8216 24.5951C26.2605 26.1581 32.2913 29.7537 40.2919 32.6263Z" fill="#736CED"/>
<path d="M54.5546 34.8233C54.6565 34.8132 54.7523 34.77 54.8274 34.7005C54.9026 34.6309 54.9529 34.5388 54.9709 34.438C55.9317 28.4497 51.8016 22.1078 44.9511 19.6482C38.1006 17.1886 30.8758 19.4466 27.8088 24.6962C27.7622 24.7768 27.7409 24.8695 27.7478 24.9623C27.7546 25.0552 27.7892 25.1438 27.8471 25.2166C28.4704 25.9893 31.0216 28.3795 40.5836 31.8127C48.902 34.7993 52.9194 34.968 54.5546 34.8233Z" fill="#56CBF9"/>
<path d="M47.6363 20.8128C47.5658 21.0091 46.2621 20.7205 44.7598 20.1811C43.2576 19.6417 42.068 19.0352 42.1385 18.8388C42.209 18.6425 43.5127 18.9311 45.015 19.4705C46.5172 20.0099 47.7068 20.6164 47.6363 20.8128Z" fill="#312F2F"/>
<path d="M44.8937 19.8281C44.8492 19.8121 44.8084 19.7875 44.7735 19.7557C44.7386 19.7238 44.7103 19.6854 44.6904 19.6425C44.6704 19.5997 44.6591 19.5534 44.6572 19.5062C44.6553 19.459 44.6627 19.4118 44.6791 19.3675L47.1297 12.542L47.8154 12.7882L45.3648 19.6137C45.3485 19.6591 45.3232 19.7008 45.2906 19.7363C45.2579 19.7718 45.2184 19.8004 45.1745 19.8204C45.1306 19.8404 45.0831 19.8513 45.0349 19.8527C44.9867 19.854 44.9387 19.8456 44.8937 19.8281Z" fill="#312F2F"/>
<path d="M48.504 13.0354C48.4298 13.2419 48.2961 13.4218 48.1197 13.5523C47.9434 13.6828 47.7322 13.7581 47.5131 13.7686C47.2939 13.7791 47.0766 13.7244 46.8885 13.6114C46.7004 13.4984 46.5501 13.3322 46.4565 13.1338C46.3629 12.9353 46.3303 12.7136 46.3627 12.4966C46.3951 12.2796 46.4912 12.0771 46.6387 11.9146C46.7862 11.7522 46.9786 11.6372 47.1915 11.5841C47.4044 11.5311 47.6282 11.5423 47.8347 11.6164C48.1117 11.7159 48.3377 11.9212 48.4632 12.1873C48.5887 12.4534 48.6034 12.7585 48.504 13.0354Z" fill="#312F2F"/>
</svg>
