<svg width="85" height="65" viewBox="0 0 85 65" fill="none" xmlns="http://www.w3.org/2000/svg">
<path d="M65.6808 39.0782C66.6257 39.0782 67.5325 38.9305 68.4351 38.7959C68.1427 39.8033 67.8419 40.828 67.3588 41.7485C66.8757 43.0858 66.1215 44.2452 65.3715 45.4132C64.7443 46.6767 63.6384 47.5321 62.8248 48.6132C61.9731 49.664 60.812 50.3631 59.8925 51.2358C58.99 52.1476 57.8077 52.6035 56.867 53.2462C55.8839 53.8236 55.028 54.4619 54.1127 54.7659L51.8288 55.7298L49.8203 56.5852L51.8754 65L54.4051 64.3748C55.2144 64.1663 56.2018 63.9232 57.3247 63.6323C58.473 63.4152 59.6976 62.8203 61.062 62.2776C62.4095 61.661 63.9689 61.2442 65.4181 60.2542C66.8757 59.3076 68.558 58.5174 70.0411 57.2495C71.4775 55.9426 73.2106 54.8093 74.4903 53.1463C75.8887 51.5919 77.27 49.9593 78.3421 48.1009C79.5837 46.3293 80.4269 44.3841 81.3167 42.4606C82.1219 40.5371 82.7702 38.5701 83.2998 36.6597C84.3041 32.83 84.7533 29.1914 84.927 26.0782C85.0711 22.9606 84.9863 20.3684 84.8084 18.4927C84.7448 17.6069 84.6261 16.7472 84.5414 16.1523L84.4355 15.4229L84.3253 15.4489C83.5716 11.8414 81.8367 8.52629 79.3211 5.887C76.8055 3.2477 73.6122 1.39209 70.1104 0.534836C66.6086 -0.322426 62.9415 -0.146309 59.5334 1.04281C56.1252 2.23193 53.1152 4.38546 50.8516 7.25429C48.588 10.1231 47.1632 13.59 46.7421 17.2539C46.3211 20.9178 46.9209 24.629 48.4722 27.9582C50.0235 31.2873 52.4629 34.0985 55.5083 36.0663C58.5536 38.0342 62.0805 39.0784 65.6808 39.0782ZM19.0695 39.0782C20.0145 39.0782 20.9213 38.9305 21.8238 38.7959C21.5314 39.8033 21.2306 40.828 20.7475 41.7485C20.2645 43.0858 19.5102 44.2452 18.7602 45.4132C18.1331 46.6767 17.0271 47.5321 16.2135 48.6132C15.3618 49.664 14.2008 50.3631 13.2813 51.2358C12.3787 52.1476 11.1965 52.6035 10.2558 53.2462C9.2727 53.8236 8.41674 54.4619 7.50146 54.7659L5.21751 55.7298L3.20899 56.5852L5.26413 65L7.79385 64.3748C8.60319 64.1663 9.59049 63.9232 10.7134 63.6323C11.8617 63.4152 13.0863 62.8203 14.4508 62.2776C15.794 61.6566 17.3576 61.2442 18.8068 60.2498C20.2645 59.3033 21.9467 58.513 23.4298 57.2452C24.8663 55.9382 26.5994 54.8049 27.8791 53.1463C29.2774 51.5919 30.6588 49.9593 31.7308 48.1009C32.9724 46.3293 33.8156 44.3841 34.7055 42.4606C35.5106 40.5371 36.1589 38.5701 36.6886 36.6597C37.6928 32.83 38.142 29.1914 38.3157 26.0782C38.4598 22.9606 38.3751 20.3684 38.1971 18.4927C38.1335 17.6069 38.0149 16.7472 37.9301 16.1523L37.8242 15.4229L37.714 15.4489C36.9604 11.8414 35.2254 8.52629 32.7098 5.887C30.1943 3.2477 27.0009 1.39209 23.4991 0.534836C19.9974 -0.322426 16.3303 -0.146309 12.9221 1.04281C9.51396 2.23193 6.50397 4.38546 4.24034 7.25429C1.97672 10.1231 0.551949 13.59 0.130875 17.2539C-0.290199 20.9178 0.309616 24.629 1.86094 27.9582C3.41226 31.2873 5.85169 34.0985 8.89704 36.0663C11.9424 38.0342 15.4692 39.0784 19.0695 39.0782Z" fill="#F9C80E"/>
</svg>
