<svg width="85" height="65" viewBox="0 0 85 65" fill="none" xmlns="http://www.w3.org/2000/svg">
<path d="M19.3192 25.9218C18.3743 25.9218 17.4675 26.0695 16.5649 26.2041C16.8573 25.1967 17.1581 24.172 17.6412 23.2515C18.1243 21.9142 18.8785 20.7548 19.6285 19.5868C20.2557 18.3233 21.3616 17.4679 22.1752 16.3868C23.0269 15.336 24.188 14.6369 25.1075 13.7642C26.01 12.8524 27.1923 12.3965 28.133 11.7538C29.1161 11.1764 29.972 10.5381 30.8873 10.2341L33.1712 9.27021L35.1797 8.41483L33.1246 0L30.5949 0.625249C29.7856 0.833665 28.7982 1.07682 27.6753 1.36773C26.527 1.58483 25.3024 2.17969 23.938 2.72244C22.5905 3.33901 21.0311 3.75584 19.5819 4.74582C18.1243 5.69238 16.442 6.48263 14.9589 7.7505C13.5225 9.05745 11.7894 10.1907 10.5097 11.8537C9.11135 13.4081 7.72996 15.0407 6.6579 16.8991C5.41634 18.6707 4.5731 20.6159 3.68325 22.5394C2.87815 24.4629 2.22983 26.4299 1.70016 28.3403C0.695895 32.17 0.246731 35.8086 0.0729985 38.9218C-0.0710726 42.0394 0.0136751 44.6316 0.191645 46.5073C0.255206 47.3931 0.373853 48.2528 0.458601 48.8477L0.564535 49.5771L0.674707 49.5511C1.42837 53.1586 3.16334 56.4737 5.67891 59.113C8.19447 61.7523 11.3878 63.6079 14.8896 64.4652C18.3914 65.3224 22.0585 65.1463 25.4666 63.9572C28.8748 62.7681 31.8848 60.6145 34.1484 57.7457C36.412 54.8769 37.8368 51.41 38.2579 47.7461C38.6789 44.0822 38.0791 40.371 36.5278 37.0418C34.9765 33.7127 32.5371 30.9015 29.4917 28.9337C26.4464 26.9658 22.9195 25.9216 19.3192 25.9218ZM65.9305 25.9218C64.9855 25.9218 64.0787 26.0695 63.1762 26.2041C63.4686 25.1967 63.7694 24.172 64.2525 23.2515C64.7355 21.9142 65.4898 20.7548 66.2398 19.5868C66.8669 18.3233 67.9729 17.4679 68.7865 16.3868C69.6382 15.336 70.7992 14.6369 71.7187 13.7642C72.6213 12.8524 73.8035 12.3965 74.7442 11.7538C75.7273 11.1764 76.5833 10.5381 77.4985 10.2341L79.7825 9.27021L81.791 8.41483L79.7359 0L77.2062 0.625249C76.3968 0.833665 75.4095 1.07682 74.2866 1.36773C73.1383 1.58483 71.9137 2.17969 70.5492 2.72244C69.206 3.34335 67.6424 3.75584 66.1932 4.75017C64.7355 5.69673 63.0533 6.48697 61.5702 7.75484C60.1337 9.06179 58.4006 10.1951 57.1209 11.8537C55.7226 13.4081 54.3412 15.0407 53.2692 16.8991C52.0276 18.6707 51.1844 20.6159 50.2945 22.5394C49.4894 24.4629 48.8411 26.4299 48.3114 28.3403C47.3072 32.17 46.858 35.8086 46.6843 38.9218C46.5402 42.0394 46.6249 44.6316 46.8029 46.5073C46.8665 47.3931 46.9851 48.2528 47.0699 48.8477L47.1758 49.5771L47.286 49.5511C48.0396 53.1586 49.7746 56.4737 52.2902 59.113C54.8057 61.7523 57.9991 63.6079 61.5009 64.4652C65.0026 65.3224 68.6697 65.1463 72.0779 63.9572C75.486 62.7681 78.496 60.6145 80.7597 57.7457C83.0233 54.8769 84.4481 51.41 84.8691 47.7461C85.2902 44.0822 84.6904 40.371 83.1391 37.0418C81.5877 33.7127 79.1483 30.9015 76.103 28.9337C73.0576 26.9658 69.5308 25.9216 65.9305 25.9218Z" fill="#F9C80E"/>
</svg>
