<svg width="55" height="55" viewBox="0 0 55 55" fill="none" xmlns="http://www.w3.org/2000/svg">
<path d="M54.9109 27.4555C54.9109 42.6187 42.6187 54.9109 27.4555 54.9109C12.2922 54.9109 0 42.6187 0 27.4555C0 12.2922 12.2922 0 27.4555 0C42.6187 0 54.9109 12.2922 54.9109 27.4555Z" fill="white"/>
<path d="M11.9594 17.8424L12.6215 17.7556C14.3473 8.67067 22.4553 1.78917 32.2132 1.78917C36.9347 1.78917 41.2655 3.39557 44.6845 6.08739C39.9847 2.32102 34.0258 0.0742188 27.535 0.0742188C12.3719 0.0742188 0.0741577 12.3719 0.0741577 27.5351C0.0741577 42.4052 11.8943 54.5076 26.645 54.9743C25.9503 53.1291 26.3302 51.0342 27.535 49.1673C27.0792 47.8865 27.1443 46.5081 27.6219 45.1622C27.4374 43.8705 27.6002 42.5138 28.0669 41.157L27.839 41.4501C27.5676 41.7865 27.0792 41.8517 26.7427 41.5803L24.7998 40.0825C24.5936 39.9196 24.485 39.67 24.4959 39.4312C24.5067 39.2792 24.561 39.1164 24.6587 38.9862L25.6681 37.7054C19.1231 35.1547 14.4667 28.9136 14.369 21.5979L12.437 21.8367C12.3827 21.8476 12.3284 21.8476 12.2742 21.8367C11.916 21.8041 11.6121 21.5328 11.5687 21.1529L11.2647 18.7216C11.2213 18.2874 11.5252 17.8967 11.9594 17.8424Z" fill="url(#paint0_linear)"/>
<path d="M33.2695 27.9006L25.3181 38.2099C18.5353 35.612 13.6824 29.1853 13.5361 21.6189L31.2768 19.3348C30.9454 20.2238 30.7603 21.1792 30.7664 22.1896C30.791 24.4349 31.7459 26.4726 33.2695 27.9006Z" fill="url(#paint1_radial)"/>
<path d="M33.6868 14.0385L19.3068 16.9525C19.3068 16.9525 29.229 15.4036 35.6406 15.0124C35.8843 14.9976 36.0205 14.9779 36.2646 14.9757C36.8268 14.9707 37.6961 15.1278 37.6961 15.1278H39.2744H40.9578L42.9851 16.1899L44.4177 17.5244L45.4178 19.0767L46.0395 21.201V23.2163L45.2826 25.5311L44.4177 27.1107L42.931 28.3907L41.3633 29.3167L40.201 29.8069L38.1738 29.9703L36.9033 29.8069L35.3103 32.0436L34.0922 33.4017L36.633 31.8221L40.3362 30.2971L42.931 29.5073L44.8231 29.3167L46.0395 29.1805H47.7424L50.3594 29.4743L50.7998 28.4098L51.2036 27.3454L51.5339 26.2075L51.7909 25.0329L51.9744 23.8584L52.0845 22.7205L52.1579 21.5459L52.1212 20.3714L52.0111 19.1601L51.9377 18.6095L51.8643 18.059L51.6441 17.0312L51.3871 16.0402L51.0935 15.0858L50.7264 14.0948L49.9189 12.3697L48.8912 10.6445L47.9735 9.35983L47.4597 8.77255L47.3496 8.62573L47.2027 8.47891L46.9458 8.18527L46.3952 7.59799L45.8446 7.08411L45.2574 6.57024L44.6334 6.05637L44.4131 5.87284L44.1562 5.68932L43.6423 5.32227L42.5779 4.62487L40.4857 3.74394L39.5253 3.49896C39.5253 3.49896 26.9022 0.91173 26.659 8.64617C26.4961 13.8252 33.6868 14.0385 33.6868 14.0385Z" fill="#E4F0FA"/>
<path d="M5.89095 22.9755C5.12031 22.9755 4.50163 23.5942 4.50163 24.3648C4.50163 23.5942 3.88295 22.9755 3.1123 22.9755C3.88295 22.9755 4.50163 22.3568 4.50163 21.5862C4.51248 22.3568 5.13117 22.9755 5.89095 22.9755Z" fill="url(#paint2_linear)"/>
<path d="M15.2907 8.53945C15.0845 8.53945 14.9217 8.70226 14.9217 8.90849C14.9217 8.70226 14.7588 8.53945 14.5526 8.53945C14.7588 8.53945 14.9217 8.37664 14.9217 8.17041C14.9217 8.36578 15.0845 8.53945 15.2907 8.53945Z" fill="url(#paint3_linear)"/>
<path d="M27.5165 49.1664C26.3117 51.0334 25.9318 53.1282 26.6265 54.9734C26.6265 54.9734 27.9717 55.0087 28.8324 54.9734C29.7812 54.9345 30.3157 54.9038 31.255 54.764C32.1259 54.6343 32.6188 54.5124 33.4516 54.3064L33.5307 54.2868C35.0623 53.9081 35.9252 53.6745 37.3847 53.0756C38.0257 52.8126 38.3749 52.6406 38.9998 52.3415C39.9308 51.8958 40.4582 51.6518 41.3489 51.1302C41.9048 50.8046 42.2091 50.6088 42.7437 50.2493C43.3148 49.8652 43.6325 49.6448 44.1752 49.2215C44.6166 48.8773 44.8504 48.6671 45.2763 48.3039C45.3769 48.2182 45.5333 48.0837 45.5333 48.0837L43.5512 48.671L41.4223 49.3316L33.1636 52.6351V50.653L37.3847 46.3218H33.1636L40.6148 42.1007H33.1636L44.7067 36.4114L37.3847 34.8331L39.844 33.0713L53.6451 30.8323L52.9477 30.2817L51.4795 29.621L49.0937 29.0704L46.4142 28.9236L42.4868 29.4742L40.6148 29.9513L38.3024 30.7955L36.4671 31.7132L34.6319 33.0713L32.1359 34.3927L30.1171 36.4114L28.759 38.9853L28.0483 41.1561C27.5816 42.5129 27.4188 43.8697 27.6033 45.1613C27.1257 46.5072 27.0606 47.8857 27.5165 49.1664Z" fill="white"/>
<path d="M43.0598 36.9445C39.2092 35.9274 36.6097 37.4421 33.2056 38.6735C32.808 38.8173 32.4505 38.4295 32.6518 38.0577C34.2168 35.1675 37.2028 33.2021 38.6616 32.5943C43.5267 30.5672 43.7636 30.5198 47.6177 30.1718C49.5448 29.9977 53.0608 30.5198 53.0608 30.5198L54.9496 28.9868C54.9496 28.9868 54.8277 31.3255 54.539 32.7919C54.2905 34.0541 53.663 35.9674 53.663 35.9674C53.663 35.9674 53.1179 37.7555 52.6228 38.8417C52.0986 39.9916 51.035 41.6613 51.035 41.6613L49.5842 43.8787C49.5842 43.8787 47.7754 46.2631 46.3266 47.4922C44.4124 49.116 40.7695 50.7224 40.7695 50.7224C40.7695 50.7224 31.2156 55.7392 31.2157 51.7626C31.2157 49.9173 33.1485 48.5188 35.0533 48.1122C35.2485 48.0706 35.2938 47.7956 35.1092 47.7198C33.7277 47.1528 33.11 47.5371 31.8548 47.6511C31.5311 47.6805 31.2963 47.3739 31.4462 47.0854C32.346 45.3541 35.2455 43.4673 38.7287 43.2276C38.9324 43.2136 38.9954 42.9488 38.8079 42.8679C36.5039 41.8737 34.2857 42.6286 32.868 42.9729C32.2688 43.1184 31.9515 42.5812 32.3592 42.1186C34.316 39.899 39.2844 37.7898 43.0187 37.3386C43.2375 37.3122 43.2729 37.0008 43.0598 36.9445Z" fill="#E4F0FA"/>
<path d="M8.00779 18.3082C7.71473 18.3082 7.47594 18.547 7.47594 18.8401C7.47594 18.547 7.23715 18.3082 6.94409 18.3082C7.23715 18.3082 7.47594 18.0694 7.47594 17.7764C7.4868 18.0694 7.71473 18.3082 8.00779 18.3082Z" fill="url(#paint4_linear)"/>
<path d="M11.264 24.1477C10.7647 24.1477 10.3631 24.5493 10.3631 25.0486C10.3631 24.5493 9.96151 24.1477 9.46222 24.1477C9.96151 24.1477 10.3631 23.7461 10.3631 23.2468C10.3631 23.7461 10.7647 24.1477 11.264 24.1477Z" fill="url(#paint5_linear)"/>
<path d="M4.11103 28.1894C3.70418 28.1894 3.37693 28.5167 3.37693 28.9235C3.37693 28.5167 3.04967 28.1894 2.64282 28.1894C3.04967 28.1894 3.37693 27.8622 3.37693 27.4553C3.37693 27.8622 3.70418 28.1894 4.11103 28.1894Z" fill="url(#paint6_linear)"/>
<path d="M10.7105 14.672C10.3523 14.672 10.0593 14.9651 10.0593 15.3232C10.0593 14.9651 9.76621 14.672 9.40802 14.672C9.76621 14.672 10.0593 14.3789 10.0593 14.0208C10.0593 14.3898 10.3523 14.672 10.7105 14.672Z" fill="url(#paint7_linear)"/>
<path d="M11.2638 8.9519C10.8948 8.9519 10.6017 9.24496 10.6017 9.614C10.6017 9.24496 10.3087 8.9519 9.93964 8.9519C10.3087 8.9519 10.6017 8.65884 10.6017 8.28979C10.6126 8.65884 10.9057 8.9519 11.2638 8.9519Z" fill="url(#paint8_linear)"/>
<path d="M19.1765 3.89398C18.8509 3.89398 18.5904 4.15448 18.5904 4.4801C18.5904 4.15448 18.3299 3.89398 18.0043 3.89398C18.3299 3.89398 18.5904 3.63348 18.5904 3.30786C18.5795 3.62263 18.8509 3.89398 19.1765 3.89398Z" fill="url(#paint9_linear)"/>
<path d="M45.3837 18.9436C44.765 17.7062 43.8099 16.6642 42.6485 15.9261C41.4654 15.1663 40.0544 14.7322 38.5456 14.7322C38.4914 14.7322 38.4262 14.7322 38.372 14.7322L36.8415 14.9167C34.3342 15.4811 32.3045 17.272 31.3928 19.6274C31.0672 20.4849 30.8826 21.4075 30.8826 22.3843C30.8826 24.566 31.7944 26.5414 33.2597 27.9308C34.2474 28.8642 35.4739 29.548 36.8524 29.8519C37.3951 29.9713 37.9595 30.0365 38.5348 30.0365C42.7679 30.0365 46.1978 26.6066 46.1978 22.3735C46.2086 21.147 45.9156 19.9747 45.3837 18.9436Z" fill="#FBFBFB"/>
<path d="M45.5358 19.5682C45.0271 18.5501 44.2417 17.6927 43.2868 17.0854C42.3141 16.4603 41.1539 16.103 39.9135 16.103C39.8688 16.103 39.8153 16.103 39.7707 16.103L38.5123 16.2549C36.4508 16.7193 34.782 18.1928 34.0324 20.1308C33.7646 20.8363 33.6129 21.5955 33.6129 22.3992C33.6129 24.1943 34.3626 25.8197 35.5673 26.9629C36.3794 27.7309 37.3879 28.2935 38.5213 28.5436C38.9675 28.6418 39.4315 28.6954 39.9045 28.6954C43.385 28.6954 46.2051 25.8733 46.2051 22.3903C46.214 21.3811 45.973 20.4166 45.5358 19.5682Z" fill="#E4F0FA"/>
<path d="M44.7957 20.296C44.349 19.4018 43.6592 18.6488 42.8206 18.1155C41.9662 17.5664 40.9473 17.2527 39.8579 17.2527C39.8187 17.2527 39.7716 17.2527 39.7325 17.2527L38.6273 17.386C36.8168 17.7939 35.3511 19.0881 34.6927 20.7901C34.4576 21.4098 34.3243 22.0765 34.3243 22.7824C34.3243 24.359 34.9827 25.7865 36.0408 26.7905C36.7541 27.465 37.6398 27.9591 38.6352 28.1788C39.0271 28.265 39.4346 28.3121 39.85 28.3121C42.9068 28.3121 45.3835 25.8335 45.3835 22.7746C45.3914 21.8882 45.1798 21.0411 44.7957 20.296Z" fill="#FBFBFB"/>
<path d="M45.442 21.2199C45.0284 20.3921 44.3899 19.6951 43.6135 19.2013C42.8226 18.693 41.8793 18.4026 40.8708 18.4026C40.8345 18.4026 40.791 18.4026 40.7547 18.4026L39.7316 18.526C38.0555 18.9036 36.6987 20.1017 36.0892 21.6774C35.8715 22.251 35.7482 22.8682 35.7482 23.5217C35.7482 24.9812 36.3577 26.3027 37.3372 27.2321C37.9975 27.8566 38.8174 28.314 39.7389 28.5173C40.1017 28.5972 40.479 28.6408 40.8635 28.6408C43.6933 28.6408 45.9862 26.3463 45.9862 23.5144C45.9934 22.6939 45.7975 21.9097 45.442 21.2199Z" fill="#E4F0FA"/>
<path d="M43.525 21.8815C43.2773 21.3902 42.8949 20.9764 42.4299 20.6833C41.9562 20.3816 41.3913 20.2092 40.7872 20.2092C40.7655 20.2092 40.7394 20.2092 40.7177 20.2092L40.1049 20.2825C39.1011 20.5066 38.2884 21.2178 37.9234 22.1531C37.793 22.4936 37.7191 22.8599 37.7191 23.2478C37.7191 24.1142 38.0842 24.8986 38.6708 25.4503C39.0663 25.8209 39.5574 26.0925 40.1093 26.2132C40.3266 26.2606 40.5525 26.2864 40.7829 26.2864C42.4777 26.2864 43.851 24.9245 43.851 23.2435C43.8553 22.7565 43.738 22.291 43.525 21.8815Z" fill="#FBFBFB"/>
<path d="M42.6322 21.5911C42.4132 21.1529 42.0752 20.7839 41.6642 20.5225C41.2455 20.2534 40.7461 20.0996 40.2122 20.0996C40.193 20.0996 40.1699 20.0996 40.1507 20.0996L39.6091 20.165C38.7217 20.3649 38.0034 20.9991 37.6807 21.8333C37.5655 22.137 37.5002 22.4637 37.5002 22.8097C37.5002 23.5824 37.8229 24.282 38.3414 24.7741C38.691 25.1047 39.1251 25.3468 39.6129 25.4545C39.805 25.4968 40.0047 25.5198 40.2083 25.5198C41.7064 25.5198 42.9203 24.3051 42.9203 22.8059C42.9241 22.3715 42.8204 21.9563 42.6322 21.5911Z" fill="#E4F0FA"/>
<path d="M54.9842 27.5452C54.9842 28.3809 54.9516 29.2058 54.8756 30.0307C54.3221 30.1501 53.7468 30.3021 53.1715 30.4866C52.3249 30.0416 51.3806 29.7051 50.3603 29.4772C51.5109 27.0024 52.1513 24.2564 52.1513 21.3692C52.1513 15.5731 49.5897 10.3631 45.5085 6.78125C51.3046 11.8176 54.9842 19.2526 54.9842 27.5452Z" fill="url(#paint10_linear)"/>
<path d="M13.6112 32.3945C13.2748 32.3945 13.0034 32.6658 13.0034 32.9914C13.0034 32.655 12.7321 32.3945 12.4064 32.3945C12.7429 32.3945 13.0034 32.1231 13.0034 31.7866C13.0143 32.1231 13.2748 32.3945 13.6112 32.3945Z" fill="url(#paint11_linear)"/>
<path d="M15.1224 38.1483C14.4048 38.1483 13.8261 38.727 13.8261 39.4214C13.8261 38.7038 13.2475 38.1483 12.553 38.1483C13.2706 38.1483 13.8261 37.5696 13.8261 36.8521C13.8493 37.5696 14.4048 38.1483 15.1224 38.1483Z" fill="url(#paint12_linear)"/>
<path d="M19.454 37.1165C18.9825 37.1165 18.6022 37.4968 18.6022 37.9531C18.6022 37.4815 18.2219 37.1165 17.7656 37.1165C18.2371 37.1165 18.6022 36.7362 18.6022 36.2646C18.6174 36.7362 18.9825 37.1165 19.454 37.1165Z" fill="url(#paint13_linear)"/>
<path d="M22.097 42.6936C21.7484 42.6936 21.4674 42.9746 21.4674 43.3119C21.4674 42.9634 21.1863 42.6936 20.849 42.6936C21.1975 42.6936 21.4674 42.4125 21.4674 42.064C21.4786 42.4125 21.7484 42.6936 22.097 42.6936Z" fill="url(#paint14_linear)"/>
<path d="M9.46967 28.5933C9.14761 28.5933 8.88239 28.8419 8.88239 29.1439C8.88239 28.8419 8.61716 28.5933 8.2951 28.5933C8.61716 28.5933 8.88239 28.3447 8.88239 28.0427C8.88239 28.3447 9.14761 28.5933 9.46967 28.5933Z" fill="url(#paint15_linear)"/>
<path d="M10.351 32.8511C10.029 32.8511 9.76373 33.0998 9.76373 33.4017C9.76373 33.0998 9.49851 32.8511 9.17645 32.8511C9.49851 32.8511 9.76373 32.6025 9.76373 32.3005C9.76373 32.6025 10.029 32.8511 10.351 32.8511Z" fill="url(#paint16_linear)"/>
<path d="M53.9561 28.0111C53.6486 28.0111 53.4006 28.2591 53.4006 28.5567C53.4006 28.2492 53.1526 28.0111 52.855 28.0111C53.1625 28.0111 53.4006 27.7631 53.4006 27.4556C53.4105 27.7631 53.6486 28.0111 53.9561 28.0111Z" fill="url(#paint17_linear)"/>
<path d="M52.855 24.6692C52.6499 24.6692 52.4846 24.8345 52.4846 25.0329C52.4846 24.8279 52.3193 24.6692 52.1208 24.6692C52.3259 24.6692 52.4846 24.5038 52.4846 24.2988C52.4912 24.5038 52.6499 24.6692 52.855 24.6692Z" fill="url(#paint18_linear)"/>
<path d="M54.2496 25.7341C54.0241 25.7341 53.8422 25.9159 53.8422 26.1342C53.8422 25.9087 53.6603 25.7341 53.4421 25.7341C53.6676 25.7341 53.8422 25.5522 53.8422 25.3267C53.8495 25.5522 54.0241 25.7341 54.2496 25.7341Z" fill="url(#paint19_linear)"/>
<path d="M53.7361 21.9531C53.5311 21.9531 53.3658 22.1185 53.3658 22.3169C53.3658 22.1118 53.2004 21.9531 53.002 21.9531C53.207 21.9531 53.3658 21.7878 53.3658 21.5828C53.3724 21.7878 53.5311 21.9531 53.7361 21.9531Z" fill="url(#paint20_linear)"/>
<path d="M52.8564 17.4016C52.6513 17.4016 52.486 17.5669 52.486 17.7654C52.486 17.5603 52.3207 17.4016 52.1223 17.4016C52.3273 17.4016 52.486 17.2363 52.486 17.0312C52.4926 17.2363 52.6513 17.4016 52.8564 17.4016Z" fill="url(#paint21_linear)"/>
<path d="M20.0412 47.4966C19.197 46.6891 18.573 43.459 15.0126 43.2388C10.0574 42.6515 8.62589 38.3203 8.62589 38.3203L6.71722 38.981C6.71722 38.981 9.32329 43.459 6.97416 45.7348C7.01087 45.7715 7.13424 45.9224 7.19439 45.9917C7.30068 46.1142 7.48803 46.2853 7.48803 46.2853L7.81838 46.6524L8.25884 47.0928L8.95624 47.7535L9.61693 48.3408L10.0574 48.7079L10.7548 49.2584L11.4889 49.809L12.1129 50.2495L12.8837 50.7634L13.6178 51.2038L14.3886 51.6443L15.0126 51.9746L15.6733 52.305L16.4074 52.6353L17.2516 53.0024L17.7288 53.1859L18.4262 53.4428L19.197 53.6998L20.0412 53.9567L21.0322 54.2136L22.427 54.5073L23.7851 54.7275L25.4736 54.911L26.7215 54.9845L28.41 49.5888C27.7003 49.2584 27.3412 48.4354 25.2166 48.0105C23.1978 47.6067 21.436 48.8308 20.0412 47.4966Z" fill="url(#paint22_linear)"/>
<path d="M8.76938 41.1382C8.76938 41.1382 9.22867 40.5963 8.60013 38.5451L7.03271 39.2543C7.03271 39.2543 7.96762 41.0955 8.76938 41.1382Z" fill="url(#paint23_linear)"/>
<path d="M4.10677 35.7788C4.10677 35.7788 4.08842 38.5198 4.33508 39.0975C4.5818 39.6752 6.52084 41.5859 6.51023 41.1465C6.49965 40.707 5.64778 39.7508 6.21733 38.9228L5.12362 37.4747C4.92256 37.2294 4.74519 36.9666 4.59363 36.6887C4.45057 36.4268 4.26506 36.0833 4.10677 35.7788Z" fill="url(#paint24_linear)"/>
<path d="M7.85346 33.9421C7.85346 33.9421 9.93119 35.7348 10.2039 36.3007C10.4768 36.8667 10.6388 39.5813 10.3145 39.2837C9.99034 38.9862 9.80008 37.8021 8.80075 37.684L8.46137 35.823C8.40897 35.5104 8.32787 35.2042 8.21834 34.9073C8.11517 34.6272 7.97859 34.2616 7.85346 33.9421Z" fill="url(#paint25_linear)"/>
<path d="M4.46946 36.7105C4.55755 36.8877 4.66628 37.0547 4.79205 37.208L6.62155 39.44L8.95652 38.3836C8.95652 38.3836 8.60476 36.0248 8.48745 35.4353C8.18795 33.9312 6.57609 31.5825 4.80204 30.8877C4.45547 30.752 4.05756 30.9261 3.90847 31.2672C3.57181 32.0379 3.1695 33.6744 4.18117 36.0824C4.26685 36.2863 4.36261 36.4956 4.46946 36.7105Z" fill="url(#paint26_linear)"/>
<path d="M3.90854 31.268C3.54336 32.1039 3.10086 33.9584 4.46953 36.7112C4.55762 36.8885 4.66635 37.0555 4.79205 37.2088L6.62159 39.4407L8.95659 38.3844C8.95659 38.3844 8.60483 36.0256 8.48745 35.4361C8.18802 33.9319 6.57609 31.5833 4.80204 30.8885C4.45554 30.7527 4.05763 30.9268 3.90854 31.268Z" fill="white"/>
<g opacity="0.399994">
<g opacity="0.399994">
<g opacity="0.399994">
<g opacity="0.399994">
<g opacity="0.399994">
<path opacity="0.399994" d="M6.32503 35.8254C6.70905 37.235 6.86116 38.4785 6.62141 39.4411L7.56818 39.0127L6.32503 35.8254Z" fill="url(#paint27_linear)"/>
</g>
</g>
</g>
</g>
</g>
<g opacity="0.399994">
<g opacity="0.399994">
<g opacity="0.399994">
<g opacity="0.399994">
<g opacity="0.399994">
<path opacity="0.399994" d="M7.38514 33.115C7.38514 33.115 8.97845 37.1163 8.37146 38.6485L8.95504 38.3846C8.95504 38.3846 8.76933 34.6162 7.38514 33.115" fill="url(#paint28_linear)"/>
</g>
</g>
</g>
</g>
</g>
<g opacity="0.490005">
<g opacity="0.490005">
<path opacity="0.490005" d="M7.60605 33.42C7.61115 33.4342 7.39685 33.5249 7.0506 33.6701C6.7043 33.8151 6.22685 34.0171 5.70497 34.2521C5.18306 34.4876 4.71567 34.7115 4.37765 34.875C4.03963 35.0384 3.82976 35.1389 3.82252 35.1257C3.81585 35.1136 4.01325 34.99 4.34355 34.8094C4.67366 34.6286 5.13788 34.3931 5.66182 34.1568C6.18574 33.9207 6.66966 33.7289 7.02377 33.6011C7.37783 33.4732 7.60138 33.407 7.60605 33.42Z" fill="#8794CA"/>
</g>
</g>
<g opacity="0.490005">
<g opacity="0.490005">
<path opacity="0.490005" d="M7.81155 33.6872C7.81632 33.7014 7.59457 33.7902 7.23562 33.9305C6.87662 34.0707 6.38099 34.2645 5.83736 34.4875C5.2936 34.711 4.80478 34.9214 4.45082 35.074C4.09681 35.2265 3.87669 35.3191 3.87023 35.3056C3.86408 35.2931 4.07298 35.1768 4.41989 35.0068C4.76658 34.8367 5.25225 34.6149 5.79764 34.3907C6.34296 34.1669 6.84438 33.9836 7.21049 33.8608C7.57676 33.7381 7.80712 33.674 7.81155 33.6872Z" fill="#8794CA"/>
</g>
</g>
<g opacity="0.429993">
<g opacity="0.429993">
<path opacity="0.429993" d="M9.01431 38.2336C9.02591 38.2601 8.47864 38.5243 7.79215 38.8236C7.10541 39.1231 6.53944 39.3444 6.52791 39.3179C6.51629 39.2914 7.06347 39.0273 7.75019 38.7278C8.43675 38.4284 9.00275 38.2072 9.01431 38.2336Z" fill="#8794CA"/>
</g>
</g>
<g opacity="0.429993">
<g opacity="0.429993">
<path opacity="0.429993" d="M8.88234 38.0367C8.8942 38.0631 8.33611 38.3382 7.63598 38.6511C6.93565 38.9642 6.35852 39.1964 6.34665 39.1701C6.33488 39.1438 6.89288 38.8686 7.59321 38.5556C8.29327 38.2427 8.87054 38.0104 8.88234 38.0367Z" fill="#8794CA"/>
</g>
</g>
<g opacity="0.190002">
<g opacity="0.190002">
<path opacity="0.190002" d="M6.6886 34.1863C6.84413 34.6534 6.58179 35.1632 6.10256 35.3249C5.62322 35.4866 5.10869 35.2391 4.95313 34.772C4.79763 34.3048 5.06003 33.7951 5.53924 33.6333C6.01844 33.4716 6.53313 33.7192 6.6886 34.1863Z" fill="#302D40"/>
</g>
</g>
<path d="M6.10536 35.1647C6.58463 35.003 6.8471 34.4933 6.6915 34.0262C6.53597 33.559 6.02138 33.3114 5.54218 33.4732C5.0629 33.6349 4.80047 34.1447 4.956 34.6118C4.96319 34.6333 4.97102 34.6542 4.97963 34.6747C5.15874 35.1008 5.64822 35.3191 6.10536 35.1647" fill="url(#paint29_linear)"/>
<g opacity="0.279999">
<g opacity="0.279999">
<path opacity="0.279999" d="M5.30766 35.0666L5.97079 33.433C5.97079 33.433 6.27241 33.497 6.39418 33.6101L5.63464 35.198C5.63464 35.198 5.37371 35.1709 5.30766 35.0666Z" fill="#E9E9E9"/>
</g>
</g>
<g opacity="0.279999">
<g opacity="0.279999">
<path opacity="0.279999" d="M5.87192 35.2119L6.46718 33.6724L6.58145 33.8061L6.04967 35.1817L5.87192 35.2119Z" fill="#E9E9E9"/>
</g>
</g>
<g opacity="0.419998">
<g opacity="0.419998">
<path opacity="0.419998" d="M5.27737 36.2216C5.2927 36.2552 5.27701 36.2951 5.24248 36.3107C5.20795 36.3264 5.16754 36.3118 5.15233 36.2782C5.137 36.2446 5.15259 36.2047 5.18721 36.189C5.22177 36.1734 5.26213 36.188 5.27737 36.2216Z" fill="#8794CA"/>
</g>
</g>
<g opacity="0.419998">
<g opacity="0.419998">
<path opacity="0.419998" d="M5.35727 36.4005C5.3725 36.4341 5.35685 36.474 5.32232 36.4897C5.28776 36.5053 5.24744 36.4907 5.23213 36.4571C5.21683 36.4236 5.23249 36.3836 5.26704 36.368C5.30164 36.3523 5.34197 36.3669 5.35727 36.4005Z" fill="#8794CA"/>
</g>
</g>
<g opacity="0.419998">
<g opacity="0.419998">
<path opacity="0.419998" d="M5.44616 36.5974C5.4614 36.631 5.44574 36.6709 5.41125 36.6865C5.37665 36.7022 5.3363 36.6875 5.32103 36.654C5.30569 36.6203 5.32135 36.5804 5.35594 36.5649C5.39053 36.5492 5.43083 36.5637 5.44616 36.5974Z" fill="#8794CA"/>
</g>
</g>
<path d="M6.41611 35.7108C6.41611 35.7108 6.09801 35.916 6.81404 37.4915C7.68615 39.4101 8.2475 40.3697 8.41093 40.2787C8.57439 40.1878 7.03002 35.3258 6.41611 35.7108Z" fill="url(#paint30_linear)"/>
<path d="M3.54123 32.9915C3.54123 32.9915 5.14399 33.0329 6.20587 31.786C6.20587 31.786 4.95408 30.4232 4.20946 30.9318C3.46488 31.4403 3.54123 32.9915 3.54123 32.9915Z" fill="url(#paint31_linear)"/>
<defs>
<linearGradient id="paint0_linear" x1="0.0743036" y1="27.5242" x2="44.6845" y2="27.5242" gradientUnits="userSpaceOnUse">
<stop stop-color="#FE6A77"/>
<stop offset="1" stop-color="#C91C91"/>
</linearGradient>
<radialGradient id="paint1_radial" cx="0" cy="0" r="1" gradientUnits="userSpaceOnUse" gradientTransform="translate(61.4997 4.99985) rotate(153.144) scale(52.8817 50.5787)">
<stop stop-color="#3B0E64"/>
<stop offset="0.1639" stop-color="#450B63"/>
<stop offset="0.3957" stop-color="#5A0362"/>
<stop offset="0.4848" stop-color="#5D0462"/>
<stop offset="0.5614" stop-color="#680661"/>
<stop offset="0.6334" stop-color="#7A0A61"/>
<stop offset="0.7026" stop-color="#931060"/>
<stop offset="0.744792" stop-color="#A7155F"/>
<stop offset="0.7691" stop-color="#B2185F"/>
<stop offset="0.8339" stop-color="#D9215D"/>
<stop offset="0.834" stop-color="#DA215D"/>
<stop offset="1" stop-color="#FFE08D"/>
</radialGradient>
<linearGradient id="paint2_linear" x1="6.19089" y1="20.0856" x2="2.85199" y2="20.0856" gradientUnits="userSpaceOnUse">
<stop stop-color="#E5EFFA"/>
<stop offset="1" stop-color="white"/>
</linearGradient>
<linearGradient id="paint3_linear" x1="15.3704" y1="7.77181" x2="14.4835" y2="7.77181" gradientUnits="userSpaceOnUse">
<stop stop-color="#E5EFFA"/>
<stop offset="1" stop-color="white"/>
</linearGradient>
<linearGradient id="paint4_linear" x1="8.12261" y1="17.2019" x2="6.84444" y2="17.2019" gradientUnits="userSpaceOnUse">
<stop stop-color="#E5EFFA"/>
<stop offset="1" stop-color="white"/>
</linearGradient>
<linearGradient id="paint5_linear" x1="11.4585" y1="22.2738" x2="9.29342" y2="22.2738" gradientUnits="userSpaceOnUse">
<stop stop-color="#E5EFFA"/>
<stop offset="1" stop-color="white"/>
</linearGradient>
<linearGradient id="paint6_linear" x1="4.26951" y1="26.6624" x2="2.50528" y2="26.6624" gradientUnits="userSpaceOnUse">
<stop stop-color="#E5EFFA"/>
<stop offset="1" stop-color="white"/>
</linearGradient>
<linearGradient id="paint7_linear" x1="10.8511" y1="13.3173" x2="9.286" y2="13.3173" gradientUnits="userSpaceOnUse">
<stop stop-color="#E5EFFA"/>
<stop offset="1" stop-color="white"/>
</linearGradient>
<linearGradient id="paint8_linear" x1="11.4068" y1="7.57466" x2="9.81558" y2="7.57466" gradientUnits="userSpaceOnUse">
<stop stop-color="#E5EFFA"/>
<stop offset="1" stop-color="white"/>
</linearGradient>
<linearGradient id="paint9_linear" x1="19.303" y1="2.67479" x2="17.8945" y2="2.67479" gradientUnits="userSpaceOnUse">
<stop stop-color="#E5EFFA"/>
<stop offset="1" stop-color="white"/>
</linearGradient>
<linearGradient id="paint10_linear" x1="48.0937" y1="-1.26996" x2="56.5887" y2="-0.463801" gradientUnits="userSpaceOnUse">
<stop stop-color="#7129C8"/>
<stop offset="1" stop-color="#990760"/>
</linearGradient>
<linearGradient id="paint11_linear" x1="13.7413" y1="31.136" x2="12.2936" y2="31.136" gradientUnits="userSpaceOnUse">
<stop stop-color="#E5EFFA"/>
<stop offset="1" stop-color="white"/>
</linearGradient>
<linearGradient id="paint12_linear" x1="15.3997" y1="35.4645" x2="12.3123" y2="35.4645" gradientUnits="userSpaceOnUse">
<stop stop-color="#E5EFFA"/>
<stop offset="1" stop-color="white"/>
</linearGradient>
<linearGradient id="paint13_linear" x1="19.6363" y1="35.3528" x2="17.6074" y2="35.3528" gradientUnits="userSpaceOnUse">
<stop stop-color="#E5EFFA"/>
<stop offset="1" stop-color="white"/>
</linearGradient>
<linearGradient id="paint14_linear" x1="22.2317" y1="41.39" x2="20.7321" y2="41.39" gradientUnits="userSpaceOnUse">
<stop stop-color="#E5EFFA"/>
<stop offset="1" stop-color="white"/>
</linearGradient>
<linearGradient id="paint15_linear" x1="9.59646" y1="27.448" x2="8.18507" y2="27.448" gradientUnits="userSpaceOnUse">
<stop stop-color="#E5EFFA"/>
<stop offset="1" stop-color="white"/>
</linearGradient>
<linearGradient id="paint16_linear" x1="10.4778" y1="31.7059" x2="9.06642" y2="31.7059" gradientUnits="userSpaceOnUse">
<stop stop-color="#E5EFFA"/>
<stop offset="1" stop-color="white"/>
</linearGradient>
<linearGradient id="paint17_linear" x1="54.075" y1="26.8609" x2="52.7518" y2="26.8609" gradientUnits="userSpaceOnUse">
<stop stop-color="#E5EFFA"/>
<stop offset="1" stop-color="white"/>
</linearGradient>
<linearGradient id="paint18_linear" x1="52.9342" y1="23.9024" x2="52.0521" y2="23.9024" gradientUnits="userSpaceOnUse">
<stop stop-color="#E5EFFA"/>
<stop offset="1" stop-color="white"/>
</linearGradient>
<linearGradient id="paint19_linear" x1="54.3368" y1="24.8906" x2="53.3664" y2="24.8906" gradientUnits="userSpaceOnUse">
<stop stop-color="#E5EFFA"/>
<stop offset="1" stop-color="white"/>
</linearGradient>
<linearGradient id="paint20_linear" x1="53.8154" y1="21.1863" x2="52.9332" y2="21.1863" gradientUnits="userSpaceOnUse">
<stop stop-color="#E5EFFA"/>
<stop offset="1" stop-color="white"/>
</linearGradient>
<linearGradient id="paint21_linear" x1="52.9356" y1="16.6348" x2="52.0535" y2="16.6348" gradientUnits="userSpaceOnUse">
<stop stop-color="#E5EFFA"/>
<stop offset="1" stop-color="white"/>
</linearGradient>
<linearGradient id="paint22_linear" x1="5.06549" y1="34.0992" x2="26.538" y2="54.9844" gradientUnits="userSpaceOnUse">
<stop stop-color="white"/>
<stop offset="1" stop-color="white" stop-opacity="0.65"/>
</linearGradient>
<linearGradient id="paint23_linear" x1="8.75884" y1="41.1427" x2="7.80739" y2="38.8782" gradientUnits="userSpaceOnUse">
<stop stop-color="#FF9E44"/>
<stop offset="1" stop-color="#FFD12E"/>
</linearGradient>
<linearGradient id="paint24_linear" x1="5.9253" y1="38.2278" x2="4.26308" y2="38.9262" gradientUnits="userSpaceOnUse">
<stop stop-color="#6D01AE"/>
<stop offset="1" stop-color="#8A25C7"/>
</linearGradient>
<linearGradient id="paint25_linear" x1="10.1563" y1="36.1852" x2="8.46889" y2="36.8942" gradientUnits="userSpaceOnUse">
<stop stop-color="#8923C6"/>
<stop offset="1" stop-color="#6D01AE"/>
</linearGradient>
<linearGradient id="paint26_linear" x1="7.2127" y1="37.51" x2="-14.7276" y2="-9.78723" gradientUnits="userSpaceOnUse">
<stop stop-color="#3A3759"/>
<stop offset="1" stop-color="#546496"/>
</linearGradient>
<linearGradient id="paint27_linear" x1="6.55797" y1="37.815" x2="-15.3821" y2="-9.48178" gradientUnits="userSpaceOnUse">
<stop stop-color="#3A3759"/>
<stop offset="1" stop-color="#546496"/>
</linearGradient>
<linearGradient id="paint28_linear" x1="8.4552" y1="36.9339" x2="-13.4851" y2="-10.3635" gradientUnits="userSpaceOnUse">
<stop stop-color="#3A3759"/>
<stop offset="1" stop-color="#546496"/>
</linearGradient>
<linearGradient id="paint29_linear" x1="6.12397" y1="35.1596" x2="6.31658" y2="33.6338" gradientUnits="userSpaceOnUse">
<stop stop-color="#ACE6FF"/>
<stop offset="1" stop-color="#52CAFF"/>
</linearGradient>
<linearGradient id="paint30_linear" x1="7.73792" y1="37.8575" x2="7.07915" y2="38.1343" gradientUnits="userSpaceOnUse">
<stop stop-color="#8721C5"/>
<stop offset="1" stop-color="#6F04B0"/>
</linearGradient>
<linearGradient id="paint31_linear" x1="5.93781" y1="31.084" x2="3.27348" y2="32.3543" gradientUnits="userSpaceOnUse">
<stop stop-color="#6D01AE"/>
<stop offset="0.505208" stop-color="#8B25C8"/>
<stop offset="1" stop-color="#6D01AE"/>
</linearGradient>
</defs>
</svg>
